<svg width="281" height="62" viewBox="0 0 281 62" fill="none" xmlns="http://www.w3.org/2000/svg">
<path d="M147 44L134.01 21.5L159.99 21.5L147 44Z" fill="#386C95"/>
<circle cx="147" cy="56" r="6" fill="#6BC3F7"/>
<rect width="281" height="36" rx="9" fill="#386C95"/>
<path d="M9.7089 6.90909C9.6535 6.44129 9.42883 6.07812 9.03489 5.8196C8.64095 5.56108 8.15776 5.43182 7.58532 5.43182C7.16676 5.43182 6.80052 5.49953 6.48659 5.63494C6.17575 5.77036 5.93262 5.95656 5.75719 6.19354C5.58484 6.43052 5.49867 6.69981 5.49867 7.00142C5.49867 7.25379 5.55868 7.47076 5.67871 7.65234C5.80182 7.83085 5.95878 7.98011 6.14959 8.10014C6.34041 8.21709 6.54045 8.31404 6.74973 8.39098C6.95901 8.46484 7.15137 8.52486 7.32679 8.57102L8.28702 8.82955C8.53323 8.89418 8.80714 8.98343 9.10875 9.0973C9.41344 9.21117 9.70428 9.3666 9.98127 9.56357C10.2613 9.75746 10.4922 10.0067 10.6737 10.3114C10.8553 10.6161 10.9461 10.9901 10.9461 11.4332C10.9461 11.9441 10.8122 12.4058 10.5445 12.8182C10.2798 13.2306 9.89202 13.5584 9.38113 13.8015C8.87331 14.0446 8.25624 14.1662 7.52992 14.1662C6.85284 14.1662 6.26654 14.0569 5.77104 13.8384C5.27862 13.6199 4.89083 13.3152 4.60769 12.9244C4.32762 12.5335 4.16912 12.0795 4.13219 11.5625H5.31401C5.34479 11.9195 5.46481 12.215 5.67409 12.4489C5.88645 12.6797 6.15421 12.852 6.47736 12.9659C6.80359 13.0767 7.15444 13.1321 7.52992 13.1321C7.96694 13.1321 8.35935 13.0613 8.70712 12.9197C9.05489 12.7751 9.33034 12.575 9.53347 12.3196C9.73659 12.0611 9.83816 11.7595 9.83816 11.4148C9.83816 11.1009 9.75044 10.8454 9.57502 10.6484C9.39959 10.4515 9.16877 10.2914 8.88255 10.1683C8.59632 10.0452 8.28702 9.9375 7.95463 9.84517L6.79128 9.51278C6.05265 9.30043 5.46789 8.99728 5.03702 8.60334C4.60615 8.2094 4.39071 7.69389 4.39071 7.05682C4.39071 6.52746 4.53382 6.06581 4.82005 5.67188C5.10935 5.27486 5.49713 4.96709 5.9834 4.74858C6.47274 4.52699 7.01903 4.41619 7.62225 4.41619C8.23162 4.41619 8.77329 4.52545 9.24725 4.74396C9.72121 4.9594 10.0967 5.25485 10.3737 5.63033C10.6537 6.0058 10.8015 6.43205 10.8169 6.90909H9.7089ZM15.5614 14.1477C14.8967 14.1477 14.3242 13.9908 13.8441 13.6768C13.364 13.3629 12.9947 12.9305 12.7362 12.3796C12.4776 11.8287 12.3484 11.1993 12.3484 10.4915C12.3484 9.77131 12.4807 9.13577 12.7454 8.58487C13.0131 8.03089 13.3855 7.59848 13.8626 7.28764C14.3427 6.97372 14.9028 6.81676 15.543 6.81676C16.0415 6.81676 16.4909 6.90909 16.891 7.09375C17.2911 7.27841 17.6188 7.53693 17.8743 7.86932C18.1297 8.2017 18.2882 8.58949 18.3498 9.03267H17.2603C17.1772 8.70952 16.9925 8.4233 16.7063 8.17401C16.4232 7.92164 16.0415 7.79545 15.5614 7.79545C15.1367 7.79545 14.7643 7.90625 14.4442 8.12784C14.1272 8.34635 13.8795 8.65566 13.701 9.05575C13.5256 9.45277 13.4379 9.91903 13.4379 10.4545C13.4379 11.0024 13.524 11.4794 13.6964 11.8857C13.8718 12.2919 14.118 12.6074 14.435 12.832C14.7551 13.0567 15.1306 13.169 15.5614 13.169C15.8446 13.169 16.1016 13.1198 16.3324 13.0213C16.5632 12.9228 16.7586 12.7812 16.9187 12.5966C17.0787 12.4119 17.1926 12.1903 17.2603 11.9318H18.3498C18.2882 12.3504 18.1359 12.7274 17.8928 13.0629C17.6527 13.3952 17.3342 13.6599 16.9371 13.8569C16.5432 14.0508 16.0846 14.1477 15.5614 14.1477ZM21.032 9.73438V14H19.9425V4.54545H21.032V8.01705H21.1243C21.2905 7.6508 21.5398 7.35997 21.8722 7.14453C22.2076 6.92602 22.6539 6.81676 23.2109 6.81676C23.6941 6.81676 24.1173 6.91371 24.4805 7.1076C24.8436 7.29841 25.1252 7.59233 25.3253 7.98935C25.5284 8.38329 25.63 8.88494 25.63 9.49432V14H24.5405V9.56818C24.5405 9.00497 24.3943 8.56948 24.1019 8.26172C23.8126 7.95088 23.411 7.79545 22.897 7.79545C22.54 7.79545 22.2199 7.87086 21.9368 8.02166C21.6567 8.17247 21.4351 8.39252 21.272 8.68182C21.112 8.97112 21.032 9.32197 21.032 9.73438ZM27.6231 14V6.90909H28.7126V14H27.6231ZM28.1771 5.72727C27.9648 5.72727 27.7816 5.65495 27.6278 5.5103C27.4769 5.36565 27.4015 5.19176 27.4015 4.98864C27.4015 4.78551 27.4769 4.61162 27.6278 4.46697C27.7816 4.32232 27.9648 4.25 28.1771 4.25C28.3895 4.25 28.5711 4.32232 28.7219 4.46697C28.8757 4.61162 28.9527 4.78551 28.9527 4.98864C28.9527 5.19176 28.8757 5.36565 28.7219 5.5103C28.5711 5.65495 28.3895 5.72727 28.1771 5.72727ZM30.7081 16.6591V6.90909H31.7607V8.03551H31.8899C31.9699 7.91241 32.0807 7.75544 32.2223 7.56463C32.367 7.37074 32.5732 7.19839 32.8409 7.04759C33.1117 6.8937 33.478 6.81676 33.9396 6.81676C34.5367 6.81676 35.063 6.96603 35.5185 7.26456C35.974 7.56309 36.3294 7.98627 36.5849 8.53409C36.8403 9.08191 36.968 9.72822 36.968 10.473C36.968 11.224 36.8403 11.8749 36.5849 12.4258C36.3294 12.9736 35.9755 13.3983 35.5231 13.6999C35.0707 13.9985 34.549 14.1477 33.9581 14.1477C33.5026 14.1477 33.1379 14.0723 32.864 13.9215C32.5901 13.7676 32.3793 13.5937 32.2315 13.3999C32.0838 13.2029 31.9699 13.0398 31.8899 12.9105H31.7976V16.6591H30.7081ZM31.7791 10.4545C31.7791 10.9901 31.8576 11.4625 32.0146 11.8718C32.1715 12.2781 32.4008 12.5966 32.7024 12.8274C33.004 13.0552 33.3733 13.169 33.8104 13.169C34.2659 13.169 34.646 13.049 34.9506 12.8089C35.2584 12.5658 35.4892 12.2396 35.6431 11.8303C35.8001 11.4179 35.8786 10.9593 35.8786 10.4545C35.8786 9.95597 35.8016 9.50663 35.6477 9.10653C35.4969 8.70336 35.2676 8.38482 34.9599 8.15092C34.6552 7.91394 34.272 7.79545 33.8104 7.79545C33.3672 7.79545 32.9948 7.90779 32.6932 8.13246C32.3916 8.35405 32.1638 8.66489 32.0099 9.06499C31.8561 9.462 31.7791 9.92519 31.7791 10.4545ZM39.7195 9.73438V14H38.63V4.54545H39.7195V8.01705H39.8118C39.978 7.6508 40.2273 7.35997 40.5597 7.14453C40.8951 6.92602 41.3414 6.81676 41.8984 6.81676C42.3816 6.81676 42.8048 6.91371 43.168 7.1076C43.5311 7.29841 43.8127 7.59233 44.0128 7.98935C44.2159 8.38329 44.3175 8.88494 44.3175 9.49432V14H43.228V9.56818C43.228 9.00497 43.0818 8.56948 42.7894 8.26172C42.5001 7.95088 42.0985 7.79545 41.5845 7.79545C41.2275 7.79545 40.9074 7.87086 40.6243 8.02166C40.3442 8.17247 40.1226 8.39252 39.9595 8.68182C39.7995 8.97112 39.7195 9.32197 39.7195 9.73438ZM49.1913 14.1477C48.5512 14.1477 47.9895 13.9954 47.5063 13.6907C47.0262 13.386 46.6507 12.9598 46.3799 12.4119C46.1121 11.8641 45.9782 11.224 45.9782 10.4915C45.9782 9.75284 46.1121 9.10807 46.3799 8.55717C46.6507 8.00627 47.0262 7.57848 47.5063 7.27379C47.9895 6.96911 48.5512 6.81676 49.1913 6.81676C49.8315 6.81676 50.3916 6.96911 50.8717 7.27379C51.3549 7.57848 51.7304 8.00627 51.9981 8.55717C52.269 9.10807 52.4044 9.75284 52.4044 10.4915C52.4044 11.224 52.269 11.8641 51.9981 12.4119C51.7304 12.9598 51.3549 13.386 50.8717 13.6907C50.3916 13.9954 49.8315 14.1477 49.1913 14.1477ZM49.1913 13.169C49.6776 13.169 50.0777 13.0444 50.3916 12.7951C50.7055 12.5458 50.9379 12.218 51.0887 11.8118C51.2395 11.4055 51.3149 10.9654 51.3149 10.4915C51.3149 10.0175 51.2395 9.57588 51.0887 9.16655C50.9379 8.75722 50.7055 8.42637 50.3916 8.17401C50.0777 7.92164 49.6776 7.79545 49.1913 7.79545C48.705 7.79545 48.305 7.92164 47.991 8.17401C47.6771 8.42637 47.4448 8.75722 47.2939 9.16655C47.1431 9.57588 47.0677 10.0175 47.0677 10.4915C47.0677 10.9654 47.1431 11.4055 47.2939 11.8118C47.4448 12.218 47.6771 12.5458 47.991 12.7951C48.305 13.0444 48.705 13.169 49.1913 13.169ZM55.157 4.54545V14H54.0675V4.54545H55.157ZM66.1269 6.90909C66.0715 6.44129 65.8468 6.07812 65.4529 5.8196C65.0589 5.56108 64.5757 5.43182 64.0033 5.43182C63.5847 5.43182 63.2185 5.49953 62.9046 5.63494C62.5937 5.77036 62.3506 5.95656 62.1752 6.19354C62.0028 6.43052 61.9166 6.69981 61.9166 7.00142C61.9166 7.25379 61.9767 7.47076 62.0967 7.65234C62.2198 7.83085 62.3767 7.98011 62.5676 8.10014C62.7584 8.21709 62.9584 8.31404 63.1677 8.39098C63.377 8.46484 63.5693 8.52486 63.7448 8.57102L64.705 8.82955C64.9512 8.89418 65.2251 8.98343 65.5267 9.0973C65.8314 9.21117 66.1222 9.3666 66.3992 9.56357C66.6793 9.75746 66.9101 10.0067 67.0917 10.3114C67.2733 10.6161 67.3641 10.9901 67.3641 11.4332C67.3641 11.9441 67.2302 12.4058 66.9624 12.8182C66.6978 13.2306 66.31 13.5584 65.7991 13.8015C65.2913 14.0446 64.6742 14.1662 63.9479 14.1662C63.2708 14.1662 62.6845 14.0569 62.189 13.8384C61.6966 13.6199 61.3088 13.3152 61.0257 12.9244C60.7456 12.5335 60.5871 12.0795 60.5502 11.5625H61.732C61.7628 11.9195 61.8828 12.215 62.0921 12.4489C62.3044 12.6797 62.5722 12.852 62.8953 12.9659C63.2216 13.0767 63.5724 13.1321 63.9479 13.1321C64.3849 13.1321 64.7773 13.0613 65.1251 12.9197C65.4729 12.7751 65.7483 12.575 65.9514 12.3196C66.1546 12.0611 66.2561 11.7595 66.2561 11.4148C66.2561 11.1009 66.1684 10.8454 65.993 10.6484C65.8176 10.4515 65.5867 10.2914 65.3005 10.1683C65.0143 10.0452 64.705 9.9375 64.3726 9.84517L63.2093 9.51278C62.4706 9.30043 61.8859 8.99728 61.455 8.60334C61.0241 8.2094 60.8087 7.69389 60.8087 7.05682C60.8087 6.52746 60.9518 6.06581 61.238 5.67188C61.5273 5.27486 61.9151 4.96709 62.4014 4.74858C62.8907 4.52699 63.437 4.41619 64.0402 4.41619C64.6496 4.41619 65.1913 4.52545 65.6652 4.74396C66.1392 4.9594 66.5146 5.25485 66.7916 5.63033C67.0717 6.0058 67.2194 6.43205 67.2348 6.90909H66.1269ZM69.0987 16.6591V6.90909H70.1513V8.03551H70.2805C70.3606 7.91241 70.4714 7.75544 70.6129 7.56463C70.7576 7.37074 70.9638 7.19839 71.2315 7.04759C71.5024 6.8937 71.8686 6.81676 72.3303 6.81676C72.9273 6.81676 73.4536 6.96603 73.9091 7.26456C74.3646 7.56309 74.7201 7.98627 74.9755 8.53409C75.2309 9.08191 75.3587 9.72822 75.3587 10.473C75.3587 11.224 75.2309 11.8749 74.9755 12.4258C74.7201 12.9736 74.3661 13.3983 73.9137 13.6999C73.4613 13.9985 72.9396 14.1477 72.3487 14.1477C71.8932 14.1477 71.5285 14.0723 71.2546 13.9215C70.9807 13.7676 70.7699 13.5937 70.6222 13.3999C70.4744 13.2029 70.3606 13.0398 70.2805 12.9105H70.1882V16.6591H69.0987ZM70.1697 10.4545C70.1697 10.9901 70.2482 11.4625 70.4052 11.8718C70.5621 12.2781 70.7914 12.5966 71.093 12.8274C71.3946 13.0552 71.764 13.169 72.201 13.169C72.6565 13.169 73.0366 13.049 73.3413 12.8089C73.649 12.5658 73.8799 12.2396 74.0337 11.8303C74.1907 11.4179 74.2692 10.9593 74.2692 10.4545C74.2692 9.95597 74.1922 9.50663 74.0384 9.10653C73.8875 8.70336 73.6583 8.38482 73.3505 8.15092C73.0458 7.91394 72.6626 7.79545 72.201 7.79545C71.7578 7.79545 71.3854 7.90779 71.0838 8.13246C70.7822 8.35405 70.5545 8.66489 70.4006 9.06499C70.2467 9.462 70.1697 9.92519 70.1697 10.4545ZM79.1072 14.1662C78.6579 14.1662 78.2501 14.0816 77.8839 13.9123C77.5176 13.7399 77.2268 13.4922 77.0114 13.169C76.7959 12.8428 76.6882 12.4489 76.6882 11.9872C76.6882 11.581 76.7682 11.2517 76.9283 10.9993C77.0883 10.7438 77.3022 10.5438 77.57 10.3991C77.8377 10.2545 78.1332 10.1468 78.4563 10.076C78.7826 10.0021 79.1103 9.94366 79.4396 9.90057C79.8705 9.84517 80.2198 9.80362 80.4876 9.77592C80.7584 9.74515 80.9554 9.69437 81.0785 9.62358C81.2047 9.55279 81.2678 9.42969 81.2678 9.25426V9.21733C81.2678 8.76184 81.1431 8.40791 80.8938 8.15554C80.6476 7.90317 80.2737 7.77699 79.772 7.77699C79.2519 7.77699 78.8441 7.89086 78.5487 8.11861C78.2532 8.34635 78.0455 8.58949 77.9254 8.84801L76.8913 8.47869C77.076 8.04782 77.3222 7.71236 77.63 7.4723C77.9408 7.22917 78.2794 7.0599 78.6456 6.96449C79.0149 6.866 79.3781 6.81676 79.7351 6.81676C79.9628 6.81676 80.2244 6.84446 80.5199 6.89986C80.8184 6.95218 81.1062 7.06143 81.3832 7.22763C81.6632 7.39382 81.8956 7.64465 82.0803 7.98011C82.2649 8.31558 82.3572 8.76491 82.3572 9.32812V14H81.2678V13.0398H81.2124C81.1385 13.1937 81.0154 13.3583 80.843 13.5337C80.6707 13.7092 80.4414 13.8584 80.1552 13.9815C79.869 14.1046 79.5196 14.1662 79.1072 14.1662ZM79.2734 13.1875C79.7043 13.1875 80.0675 13.1029 80.3629 12.9336C80.6615 12.7643 80.8861 12.5458 81.0369 12.2781C81.1908 12.0103 81.2678 11.7287 81.2678 11.4332V10.4361C81.2216 10.4915 81.12 10.5423 80.9631 10.5884C80.8092 10.6315 80.6307 10.67 80.4276 10.7038C80.2275 10.7346 80.0321 10.7623 79.8413 10.7869C79.6535 10.8085 79.5012 10.8269 79.3842 10.8423C79.1011 10.8793 78.8364 10.9393 78.5902 11.0224C78.3471 11.1024 78.1501 11.224 77.9993 11.3871C77.8516 11.5471 77.7777 11.7656 77.7777 12.0426C77.7777 12.4212 77.9177 12.7074 78.1978 12.9013C78.4809 13.0921 78.8395 13.1875 79.2734 13.1875ZM87.2265 14.1477C86.5617 14.1477 85.9893 13.9908 85.5091 13.6768C85.029 13.3629 84.6597 12.9305 84.4012 12.3796C84.1427 11.8287 84.0134 11.1993 84.0134 10.4915C84.0134 9.77131 84.1457 9.13577 84.4104 8.58487C84.6782 8.03089 85.0506 7.59848 85.5276 7.28764C86.0077 6.97372 86.5679 6.81676 87.208 6.81676C87.7066 6.81676 88.1559 6.90909 88.556 7.09375C88.9561 7.27841 89.2839 7.53693 89.5393 7.86932C89.7948 8.2017 89.9533 8.58949 90.0148 9.03267H88.9253C88.8422 8.70952 88.6576 8.4233 88.3714 8.17401C88.0882 7.92164 87.7066 7.79545 87.2265 7.79545C86.8018 7.79545 86.4294 7.90625 86.1093 8.12784C85.7923 8.34635 85.5445 8.65566 85.366 9.05575C85.1906 9.45277 85.1029 9.91903 85.1029 10.4545C85.1029 11.0024 85.1891 11.4794 85.3614 11.8857C85.5368 12.2919 85.7831 12.6074 86.1001 12.832C86.4201 13.0567 86.7956 13.169 87.2265 13.169C87.5096 13.169 87.7666 13.1198 87.9974 13.0213C88.2282 12.9228 88.4237 12.7812 88.5837 12.5966C88.7438 12.4119 88.8576 12.1903 88.9253 11.9318H90.0148C89.9533 12.3504 89.8009 12.7274 89.5578 13.0629C89.3177 13.3952 88.9992 13.6599 88.6022 13.8569C88.2082 14.0508 87.7497 14.1477 87.2265 14.1477ZM94.5805 14.1477C93.8973 14.1477 93.3079 13.9969 92.8124 13.6953C92.32 13.3906 91.9399 12.9659 91.6721 12.4212C91.4075 11.8733 91.2751 11.2363 91.2751 10.5099C91.2751 9.78362 91.4075 9.14347 91.6721 8.58949C91.9399 8.03243 92.3123 7.59848 92.7893 7.28764C93.2694 6.97372 93.8296 6.81676 94.4697 6.81676C94.839 6.81676 95.2037 6.87831 95.5638 7.00142C95.9239 7.12453 96.2517 7.32457 96.5471 7.60156C96.8426 7.87547 97.078 8.23864 97.2535 8.69105C97.4289 9.14347 97.5166 9.70052 97.5166 10.3622V10.8239H92.0507V9.8821H96.4086C96.4086 9.48201 96.3286 9.125 96.1686 8.81108C96.0116 8.49716 95.787 8.24941 95.4946 8.06783C95.2053 7.88625 94.8637 7.79545 94.4697 7.79545C94.0358 7.79545 93.6603 7.90317 93.3433 8.11861C93.0294 8.33097 92.7878 8.60795 92.6185 8.94957C92.4492 9.29119 92.3646 9.65743 92.3646 10.0483V10.6761C92.3646 11.2116 92.4569 11.6656 92.6416 12.038C92.8293 12.4073 93.0894 12.6889 93.4218 12.8828C93.7542 13.0736 94.1404 13.169 94.5805 13.169C94.8667 13.169 95.1253 13.129 95.3561 13.049C95.59 12.9659 95.7916 12.8428 95.9608 12.6797C96.1301 12.5135 96.2609 12.3073 96.3532 12.0611L97.4058 12.3565C97.295 12.7135 97.1088 13.0275 96.8472 13.2983C96.5856 13.5661 96.2625 13.7753 95.8778 13.9261C95.493 14.0739 95.0606 14.1477 94.5805 14.1477ZM104.197 8.49716L103.218 8.77415C103.156 8.61103 103.066 8.45253 102.946 8.29865C102.829 8.14169 102.669 8.01243 102.465 7.91087C102.262 7.8093 102.002 7.75852 101.685 7.75852C101.251 7.75852 100.89 7.85855 100.6 8.05859C100.314 8.25556 100.171 8.50639 100.171 8.81108C100.171 9.08191 100.27 9.29581 100.467 9.45277C100.664 9.60973 100.971 9.74053 101.39 9.84517L102.442 10.1037C103.076 10.2576 103.549 10.493 103.86 10.81C104.17 11.1239 104.326 11.5286 104.326 12.0241C104.326 12.4304 104.209 12.7936 103.975 13.1136C103.744 13.4337 103.421 13.6861 103.006 13.8707C102.59 14.0554 102.107 14.1477 101.556 14.1477C100.833 14.1477 100.234 13.9908 99.7602 13.6768C99.2863 13.3629 98.9862 12.9044 98.86 12.3011L99.8941 12.0426C99.9926 12.4242 100.179 12.7105 100.453 12.9013C100.73 13.0921 101.091 13.1875 101.538 13.1875C102.045 13.1875 102.449 13.0798 102.747 12.8643C103.049 12.6458 103.199 12.3842 103.199 12.0795C103.199 11.8333 103.113 11.6271 102.941 11.4609C102.769 11.2917 102.504 11.1655 102.147 11.0824L100.965 10.8054C100.316 10.6515 99.8387 10.413 99.534 10.0898C99.2324 9.76361 99.0816 9.35582 99.0816 8.86648C99.0816 8.46638 99.1939 8.11245 99.4186 7.80469C99.6463 7.49692 99.9556 7.25533 100.347 7.0799C100.74 6.90447 101.187 6.81676 101.685 6.81676C102.387 6.81676 102.938 6.97064 103.338 7.27841C103.741 7.58617 104.027 7.99242 104.197 8.49716ZM109.05 6.90909V7.83239H105.375V6.90909H109.05ZM106.446 5.21023H107.536V11.9688C107.536 12.2765 107.58 12.5073 107.669 12.6612C107.762 12.812 107.879 12.9136 108.02 12.9659C108.165 13.0152 108.317 13.0398 108.477 13.0398C108.597 13.0398 108.696 13.0336 108.773 13.0213C108.85 13.0059 108.911 12.9936 108.957 12.9844L109.179 13.9631C109.105 13.9908 109.002 14.0185 108.87 14.0462C108.737 14.0769 108.57 14.0923 108.366 14.0923C108.059 14.0923 107.757 14.0262 107.462 13.8938C107.169 13.7615 106.926 13.5599 106.732 13.2891C106.541 13.0182 106.446 12.6766 106.446 12.2642V5.21023ZM112.775 14.1662C112.326 14.1662 111.918 14.0816 111.552 13.9123C111.186 13.7399 110.895 13.4922 110.679 13.169C110.464 12.8428 110.356 12.4489 110.356 11.9872C110.356 11.581 110.436 11.2517 110.596 10.9993C110.756 10.7438 110.97 10.5438 111.238 10.3991C111.506 10.2545 111.801 10.1468 112.124 10.076C112.451 10.0021 112.778 9.94366 113.108 9.90057C113.538 9.84517 113.888 9.80362 114.156 9.77592C114.426 9.74515 114.623 9.69437 114.746 9.62358C114.873 9.55279 114.936 9.42969 114.936 9.25426V9.21733C114.936 8.76184 114.811 8.40791 114.562 8.15554C114.316 7.90317 113.942 7.77699 113.44 7.77699C112.92 7.77699 112.512 7.89086 112.217 8.11861C111.921 8.34635 111.713 8.58949 111.593 8.84801L110.559 8.47869C110.744 8.04782 110.99 7.71236 111.298 7.4723C111.609 7.22917 111.947 7.0599 112.314 6.96449C112.683 6.866 113.046 6.81676 113.403 6.81676C113.631 6.81676 113.892 6.84446 114.188 6.89986C114.486 6.95218 114.774 7.06143 115.051 7.22763C115.331 7.39382 115.564 7.64465 115.748 7.98011C115.933 8.31558 116.025 8.76491 116.025 9.32812V14H114.936V13.0398H114.88C114.806 13.1937 114.683 13.3583 114.511 13.5337C114.339 13.7092 114.109 13.8584 113.823 13.9815C113.537 14.1046 113.188 14.1662 112.775 14.1662ZM112.941 13.1875C113.372 13.1875 113.735 13.1029 114.031 12.9336C114.329 12.7643 114.554 12.5458 114.705 12.2781C114.859 12.0103 114.936 11.7287 114.936 11.4332V10.4361C114.89 10.4915 114.788 10.5423 114.631 10.5884C114.477 10.6315 114.299 10.67 114.096 10.7038C113.895 10.7346 113.7 10.7623 113.509 10.7869C113.321 10.8085 113.169 10.8269 113.052 10.8423C112.769 10.8793 112.504 10.9393 112.258 11.0224C112.015 11.1024 111.818 11.224 111.667 11.3871C111.52 11.5471 111.446 11.7656 111.446 12.0426C111.446 12.4212 111.586 12.7074 111.866 12.9013C112.149 13.0921 112.507 13.1875 112.941 13.1875ZM121.098 6.90909V7.83239H117.423V6.90909H121.098ZM118.494 5.21023H119.583V11.9688C119.583 12.2765 119.628 12.5073 119.717 12.6612C119.81 12.812 119.927 12.9136 120.068 12.9659C120.213 13.0152 120.365 13.0398 120.525 13.0398C120.645 13.0398 120.744 13.0336 120.821 13.0213C120.898 13.0059 120.959 12.9936 121.005 12.9844L121.227 13.9631C121.153 13.9908 121.05 14.0185 120.918 14.0462C120.785 14.0769 120.617 14.0923 120.414 14.0923C120.107 14.0923 119.805 14.0262 119.509 13.8938C119.217 13.7615 118.974 13.5599 118.78 13.2891C118.589 13.0182 118.494 12.6766 118.494 12.2642V5.21023ZM122.736 14V6.90909H123.826V14H122.736ZM123.29 5.72727C123.078 5.72727 122.895 5.65495 122.741 5.5103C122.59 5.36565 122.515 5.19176 122.515 4.98864C122.515 4.78551 122.59 4.61162 122.741 4.46697C122.895 4.32232 123.078 4.25 123.29 4.25C123.503 4.25 123.684 4.32232 123.835 4.46697C123.989 4.61162 124.066 4.78551 124.066 4.98864C124.066 5.19176 123.989 5.36565 123.835 5.5103C123.684 5.65495 123.503 5.72727 123.29 5.72727ZM128.702 14.1477C128.062 14.1477 127.5 13.9954 127.017 13.6907C126.537 13.386 126.161 12.9598 125.891 12.4119C125.623 11.8641 125.489 11.224 125.489 10.4915C125.489 9.75284 125.623 9.10807 125.891 8.55717C126.161 8.00627 126.537 7.57848 127.017 7.27379C127.5 6.96911 128.062 6.81676 128.702 6.81676C129.342 6.81676 129.902 6.96911 130.382 7.27379C130.866 7.57848 131.241 8.00627 131.509 8.55717C131.78 9.10807 131.915 9.75284 131.915 10.4915C131.915 11.224 131.78 11.8641 131.509 12.4119C131.241 12.9598 130.866 13.386 130.382 13.6907C129.902 13.9954 129.342 14.1477 128.702 14.1477ZM128.702 13.169C129.188 13.169 129.588 13.0444 129.902 12.7951C130.216 12.5458 130.449 12.218 130.599 11.8118C130.75 11.4055 130.826 10.9654 130.826 10.4915C130.826 10.0175 130.75 9.57588 130.599 9.16655C130.449 8.75722 130.216 8.42637 129.902 8.17401C129.588 7.92164 129.188 7.79545 128.702 7.79545C128.216 7.79545 127.816 7.92164 127.502 8.17401C127.188 8.42637 126.955 8.75722 126.805 9.16655C126.654 9.57588 126.578 10.0175 126.578 10.4915C126.578 10.9654 126.654 11.4055 126.805 11.8118C126.955 12.218 127.188 12.5458 127.502 12.7951C127.816 13.0444 128.216 13.169 128.702 13.169ZM134.668 9.73438V14H133.578V6.90909H134.631V8.01705H134.723C134.889 7.65696 135.142 7.36766 135.48 7.14915C135.819 6.92756 136.256 6.81676 136.791 6.81676C137.271 6.81676 137.691 6.91525 138.052 7.11222C138.412 7.30611 138.692 7.60156 138.892 7.99858C139.092 8.39252 139.192 8.8911 139.192 9.49432V14H138.102V9.56818C138.102 9.01113 137.958 8.57718 137.668 8.26633C137.379 7.95241 136.982 7.79545 136.477 7.79545C136.13 7.79545 135.819 7.87086 135.545 8.02166C135.274 8.17247 135.06 8.39252 134.903 8.68182C134.746 8.97112 134.668 9.32197 134.668 9.73438ZM151.154 11.304C150.782 11.304 150.442 11.2132 150.134 11.0316C149.826 10.8469 149.58 10.6007 149.395 10.293C149.214 9.9852 149.123 9.64512 149.123 9.27273C149.123 8.89725 149.214 8.55717 149.395 8.25249C149.58 7.94472 149.826 7.70005 150.134 7.51847C150.442 7.33381 150.782 7.24148 151.154 7.24148C151.53 7.24148 151.87 7.33381 152.175 7.51847C152.482 7.70005 152.727 7.94472 152.909 8.25249C153.093 8.55717 153.186 8.89725 153.186 9.27273C153.186 9.64512 153.093 9.9852 152.909 10.293C152.727 10.6007 152.482 10.8469 152.175 11.0316C151.87 11.2132 151.53 11.304 151.154 11.304ZM162.529 14H159.612V4.54545H162.659C163.576 4.54545 164.36 4.73473 165.013 5.11328C165.665 5.48875 166.166 6.02888 166.513 6.73366C166.861 7.43537 167.035 8.27557 167.035 9.25426C167.035 10.2391 166.86 11.087 166.509 11.7979C166.158 12.5058 165.647 13.0505 164.976 13.4322C164.305 13.8107 163.49 14 162.529 14ZM160.757 12.9844H162.455C163.237 12.9844 163.885 12.8336 164.399 12.532C164.913 12.2304 165.296 11.801 165.548 11.244C165.801 10.6869 165.927 10.0237 165.927 9.25426C165.927 8.491 165.802 7.83393 165.553 7.28303C165.304 6.72905 164.931 6.30433 164.436 6.00888C163.94 5.71035 163.323 5.56108 162.585 5.56108H160.757V12.9844ZM171.781 14.1477C171.097 14.1477 170.508 13.9969 170.013 13.6953C169.52 13.3906 169.14 12.9659 168.872 12.4212C168.608 11.8733 168.475 11.2363 168.475 10.5099C168.475 9.78362 168.608 9.14347 168.872 8.58949C169.14 8.03243 169.512 7.59848 169.99 7.28764C170.47 6.97372 171.03 6.81676 171.67 6.81676C172.039 6.81676 172.404 6.87831 172.764 7.00142C173.124 7.12453 173.452 7.32457 173.747 7.60156C174.043 7.87547 174.278 8.23864 174.454 8.69105C174.629 9.14347 174.717 9.70052 174.717 10.3622V10.8239H169.251V9.8821H173.609C173.609 9.48201 173.529 9.125 173.369 8.81108C173.212 8.49716 172.987 8.24941 172.695 8.06783C172.405 7.88625 172.064 7.79545 171.67 7.79545C171.236 7.79545 170.86 7.90317 170.544 8.11861C170.23 8.33097 169.988 8.60795 169.819 8.94957C169.649 9.29119 169.565 9.65743 169.565 10.0483V10.6761C169.565 11.2116 169.657 11.6656 169.842 12.038C170.03 12.4073 170.29 12.6889 170.622 12.8828C170.954 13.0736 171.341 13.169 171.781 13.169C172.067 13.169 172.325 13.129 172.556 13.049C172.79 12.9659 172.992 12.8428 173.161 12.6797C173.33 12.5135 173.461 12.3073 173.553 12.0611L174.606 12.3565C174.495 12.7135 174.309 13.0275 174.047 13.2983C173.786 13.5661 173.463 13.7753 173.078 13.9261C172.693 14.0739 172.261 14.1477 171.781 14.1477ZM176.374 16.6591V6.90909H177.427V8.03551H177.556C177.636 7.91241 177.747 7.75544 177.888 7.56463C178.033 7.37074 178.239 7.19839 178.507 7.04759C178.778 6.8937 179.144 6.81676 179.606 6.81676C180.203 6.81676 180.729 6.96603 181.184 7.26456C181.64 7.56309 181.995 7.98627 182.251 8.53409C182.506 9.08191 182.634 9.72822 182.634 10.473C182.634 11.224 182.506 11.8749 182.251 12.4258C181.995 12.9736 181.642 13.3983 181.189 13.6999C180.737 13.9985 180.215 14.1477 179.624 14.1477C179.169 14.1477 178.804 14.0723 178.53 13.9215C178.256 13.7676 178.045 13.5937 177.898 13.3999C177.75 13.2029 177.636 13.0398 177.556 12.9105H177.464V16.6591H176.374ZM177.445 10.4545C177.445 10.9901 177.524 11.4625 177.681 11.8718C177.838 12.2781 178.067 12.5966 178.368 12.8274C178.67 13.0552 179.039 13.169 179.476 13.169C179.932 13.169 180.312 13.049 180.617 12.8089C180.924 12.5658 181.155 12.2396 181.309 11.8303C181.466 11.4179 181.545 10.9593 181.545 10.4545C181.545 9.95597 181.468 9.50663 181.314 9.10653C181.163 8.70336 180.934 8.38482 180.626 8.15092C180.321 7.91394 179.938 7.79545 179.476 7.79545C179.033 7.79545 178.661 7.90779 178.359 8.13246C178.058 8.35405 177.83 8.66489 177.676 9.06499C177.522 9.462 177.445 9.92519 177.445 10.4545ZM186.383 14.1662C185.933 14.1662 185.526 14.0816 185.159 13.9123C184.793 13.7399 184.502 13.4922 184.287 13.169C184.071 12.8428 183.964 12.4489 183.964 11.9872C183.964 11.581 184.044 11.2517 184.204 10.9993C184.364 10.7438 184.578 10.5438 184.845 10.3991C185.113 10.2545 185.409 10.1468 185.732 10.076C186.058 10.0021 186.386 9.94366 186.715 9.90057C187.146 9.84517 187.495 9.80362 187.763 9.77592C188.034 9.74515 188.231 9.69437 188.354 9.62358C188.48 9.55279 188.543 9.42969 188.543 9.25426V9.21733C188.543 8.76184 188.419 8.40791 188.169 8.15554C187.923 7.90317 187.549 7.77699 187.047 7.77699C186.527 7.77699 186.119 7.89086 185.824 8.11861C185.529 8.34635 185.321 8.58949 185.201 8.84801L184.167 8.47869C184.351 8.04782 184.598 7.71236 184.905 7.4723C185.216 7.22917 185.555 7.0599 185.921 6.96449C186.29 6.866 186.653 6.81676 187.01 6.81676C187.238 6.81676 187.5 6.84446 187.795 6.89986C188.094 6.95218 188.382 7.06143 188.659 7.22763C188.939 7.39382 189.171 7.64465 189.356 7.98011C189.54 8.31558 189.633 8.76491 189.633 9.32812V14H188.543V13.0398H188.488C188.414 13.1937 188.291 13.3583 188.118 13.5337C187.946 13.7092 187.717 13.8584 187.431 13.9815C187.144 14.1046 186.795 14.1662 186.383 14.1662ZM186.549 13.1875C186.98 13.1875 187.343 13.1029 187.638 12.9336C187.937 12.7643 188.162 12.5458 188.312 12.2781C188.466 12.0103 188.543 11.7287 188.543 11.4332V10.4361C188.497 10.4915 188.395 10.5423 188.238 10.5884C188.085 10.6315 187.906 10.67 187.703 10.7038C187.503 10.7346 187.307 10.7623 187.117 10.7869C186.929 10.8085 186.777 10.8269 186.66 10.8423C186.376 10.8793 186.112 10.9393 185.866 11.0224C185.622 11.1024 185.425 11.224 185.275 11.3871C185.127 11.5471 185.053 11.7656 185.053 12.0426C185.053 12.4212 185.193 12.7074 185.473 12.9013C185.756 13.0921 186.115 13.1875 186.549 13.1875ZM191.621 14V6.90909H192.674V7.98011H192.748C192.877 7.62926 193.111 7.34458 193.449 7.12606C193.788 6.90755 194.169 6.79829 194.594 6.79829C194.674 6.79829 194.774 6.79983 194.894 6.80291C195.014 6.80599 195.105 6.81061 195.167 6.81676V7.92472C195.13 7.91548 195.045 7.90163 194.913 7.88317C194.783 7.86162 194.647 7.85085 194.502 7.85085C194.157 7.85085 193.849 7.92318 193.579 8.06783C193.311 8.2094 193.098 8.40637 192.941 8.65874C192.788 8.90803 192.711 9.19271 192.711 9.51278V14H191.621ZM199.986 6.90909V7.83239H196.312V6.90909H199.986ZM197.383 5.21023H198.472V11.9688C198.472 12.2765 198.517 12.5073 198.606 12.6612C198.698 12.812 198.815 12.9136 198.957 12.9659C199.101 13.0152 199.254 13.0398 199.414 13.0398C199.534 13.0398 199.632 13.0336 199.709 13.0213C199.786 13.0059 199.848 12.9936 199.894 12.9844L200.116 13.9631C200.042 13.9908 199.939 14.0185 199.806 14.0462C199.674 14.0769 199.506 14.0923 199.303 14.0923C198.995 14.0923 198.694 14.0262 198.398 13.8938C198.106 13.7615 197.863 13.5599 197.669 13.2891C197.478 13.0182 197.383 12.6766 197.383 12.2642V5.21023ZM206.094 11.1009V6.90909H207.183V14H206.094V12.7997H206.02C205.854 13.1598 205.595 13.466 205.244 13.7184C204.894 13.9677 204.45 14.0923 203.915 14.0923C203.472 14.0923 203.078 13.9954 202.733 13.8015C202.388 13.6045 202.118 13.3091 201.921 12.9151C201.724 12.5181 201.625 12.018 201.625 11.4148V6.90909H202.715V11.3409C202.715 11.858 202.859 12.2704 203.149 12.5781C203.441 12.8859 203.813 13.0398 204.266 13.0398C204.537 13.0398 204.812 12.9705 205.092 12.832C205.375 12.6935 205.612 12.4812 205.803 12.195C205.997 11.9087 206.094 11.544 206.094 11.1009ZM209.179 14V6.90909H210.231V7.98011H210.305C210.434 7.62926 210.668 7.34458 211.007 7.12606C211.345 6.90755 211.727 6.79829 212.152 6.79829C212.232 6.79829 212.332 6.79983 212.452 6.80291C212.572 6.80599 212.663 6.81061 212.724 6.81676V7.92472C212.687 7.91548 212.603 7.90163 212.47 7.88317C212.341 7.86162 212.204 7.85085 212.059 7.85085C211.715 7.85085 211.407 7.92318 211.136 8.06783C210.868 8.2094 210.656 8.40637 210.499 8.65874C210.345 8.90803 210.268 9.19271 210.268 9.51278V14H209.179ZM216.773 14.1477C216.09 14.1477 215.5 13.9969 215.005 13.6953C214.512 13.3906 214.132 12.9659 213.865 12.4212C213.6 11.8733 213.468 11.2363 213.468 10.5099C213.468 9.78362 213.6 9.14347 213.865 8.58949C214.132 8.03243 214.505 7.59848 214.982 7.28764C215.462 6.97372 216.022 6.81676 216.662 6.81676C217.031 6.81676 217.396 6.87831 217.756 7.00142C218.116 7.12453 218.444 7.32457 218.74 7.60156C219.035 7.87547 219.27 8.23864 219.446 8.69105C219.621 9.14347 219.709 9.70052 219.709 10.3622V10.8239H214.243V9.8821H218.601C218.601 9.48201 218.521 9.125 218.361 8.81108C218.204 8.49716 217.979 8.24941 217.687 8.06783C217.398 7.88625 217.056 7.79545 216.662 7.79545C216.228 7.79545 215.853 7.90317 215.536 8.11861C215.222 8.33097 214.98 8.60795 214.811 8.94957C214.642 9.29119 214.557 9.65743 214.557 10.0483V10.6761C214.557 11.2116 214.649 11.6656 214.834 12.038C215.022 12.4073 215.282 12.6889 215.614 12.8828C215.947 13.0736 216.333 13.169 216.773 13.169C217.059 13.169 217.318 13.129 217.548 13.049C217.782 12.9659 217.984 12.8428 218.153 12.6797C218.323 12.5135 218.453 12.3073 218.546 12.0611L219.598 12.3565C219.487 12.7135 219.301 13.0275 219.04 13.2983C218.778 13.5661 218.455 13.7753 218.07 13.9261C217.685 14.0739 217.253 14.1477 216.773 14.1477ZM228.199 14.1293C227.589 14.1293 227.046 14.0246 226.569 13.8153C226.095 13.6061 225.718 13.3152 225.438 12.9428C225.161 12.5674 225.01 12.1319 224.986 11.6364H226.149C226.174 11.9411 226.278 12.2042 226.463 12.4258C226.648 12.6443 226.889 12.8136 227.188 12.9336C227.486 13.0536 227.817 13.1136 228.18 13.1136C228.586 13.1136 228.947 13.0429 229.26 12.9013C229.574 12.7597 229.821 12.5627 229.999 12.3104C230.178 12.058 230.267 11.7656 230.267 11.4332C230.267 11.0855 230.181 10.7792 230.008 10.5146C229.836 10.2468 229.584 10.0375 229.251 9.88672C228.919 9.73591 228.513 9.66051 228.032 9.66051H227.275V8.64489H228.032C228.408 8.64489 228.737 8.57718 229.02 8.44176C229.307 8.30634 229.53 8.11553 229.69 7.86932C229.853 7.62311 229.934 7.33381 229.934 7.00142C229.934 6.68134 229.864 6.40282 229.722 6.16584C229.581 5.92886 229.381 5.7442 229.122 5.61186C228.867 5.47952 228.565 5.41335 228.217 5.41335C227.891 5.41335 227.583 5.47337 227.294 5.59339C227.008 5.71035 226.774 5.88116 226.592 6.10582C226.411 6.32741 226.312 6.59517 226.297 6.90909H225.189C225.207 6.41359 225.356 5.97964 225.637 5.60724C225.917 5.23177 226.283 4.93939 226.735 4.73011C227.191 4.52083 227.691 4.41619 228.236 4.41619C228.82 4.41619 229.322 4.53468 229.741 4.77166C230.159 5.00556 230.481 5.31487 230.705 5.69957C230.93 6.08428 231.042 6.49976 231.042 6.94602C231.042 7.47846 230.902 7.93241 230.622 8.30788C230.345 8.68336 229.968 8.94342 229.491 9.08807V9.16193C230.088 9.26042 230.555 9.51432 230.89 9.92365C231.226 10.3299 231.393 10.8331 231.393 11.4332C231.393 11.9472 231.253 12.4089 230.973 12.8182C230.696 13.2244 230.318 13.5445 229.838 13.7784C229.357 14.0123 228.811 14.1293 228.199 14.1293ZM234.094 12.7905C233.866 12.7905 233.671 12.7089 233.508 12.5458C233.345 12.3827 233.263 12.1873 233.263 11.9595C233.263 11.7318 233.345 11.5363 233.508 11.3732C233.671 11.2101 233.866 11.1286 234.094 11.1286C234.322 11.1286 234.517 11.2101 234.68 11.3732C234.843 11.5363 234.925 11.7318 234.925 11.9595C234.925 12.1103 234.886 12.2488 234.809 12.375C234.736 12.5012 234.636 12.6027 234.509 12.6797C234.386 12.7536 234.248 12.7905 234.094 12.7905ZM234.094 8.00781C233.866 8.00781 233.671 7.92625 233.508 7.76314C233.345 7.60002 233.263 7.40459 233.263 7.17685C233.263 6.9491 233.345 6.75367 233.508 6.59055C233.671 6.42744 233.866 6.34588 234.094 6.34588C234.322 6.34588 234.517 6.42744 234.68 6.59055C234.843 6.75367 234.925 6.9491 234.925 7.17685C234.925 7.32765 234.886 7.46615 234.809 7.59233C234.736 7.71851 234.636 7.82008 234.509 7.89702C234.386 7.97088 234.248 8.00781 234.094 8.00781ZM239.945 14.1293C239.25 14.1293 238.657 13.94 238.168 13.5614C237.679 13.1798 237.305 12.6274 237.046 11.9041C236.788 11.1778 236.658 10.3007 236.658 9.27273C236.658 8.25095 236.788 7.37843 237.046 6.65518C237.308 5.92886 237.683 5.37488 238.173 4.99325C238.665 4.60855 239.256 4.41619 239.945 4.41619C240.635 4.41619 241.224 4.60855 241.713 4.99325C242.206 5.37488 242.581 5.92886 242.84 6.65518C243.101 7.37843 243.232 8.25095 243.232 9.27273C243.232 10.3007 243.103 11.1778 242.844 11.9041C242.586 12.6274 242.212 13.1798 241.723 13.5614C241.233 13.94 240.641 14.1293 239.945 14.1293ZM239.945 13.1136C240.635 13.1136 241.17 12.7812 241.552 12.1165C241.933 11.4517 242.124 10.5038 242.124 9.27273C242.124 8.45407 242.037 7.75698 241.861 7.18146C241.689 6.60594 241.44 6.16738 241.113 5.86577C240.79 5.56416 240.401 5.41335 239.945 5.41335C239.262 5.41335 238.728 5.75035 238.343 6.42436C237.959 7.09529 237.766 8.04474 237.766 9.27273C237.766 10.0914 237.853 10.7869 238.025 11.3594C238.197 11.9318 238.445 12.3673 238.768 12.6658C239.094 12.9644 239.487 13.1136 239.945 13.1136ZM248.07 14.1293C247.375 14.1293 246.782 13.94 246.293 13.5614C245.804 13.1798 245.43 12.6274 245.171 11.9041C244.913 11.1778 244.783 10.3007 244.783 9.27273C244.783 8.25095 244.913 7.37843 245.171 6.65518C245.433 5.92886 245.808 5.37488 246.298 4.99325C246.79 4.60855 247.381 4.41619 248.07 4.41619C248.76 4.41619 249.349 4.60855 249.838 4.99325C250.331 5.37488 250.706 5.92886 250.965 6.65518C251.226 7.37843 251.357 8.25095 251.357 9.27273C251.357 10.3007 251.228 11.1778 250.969 11.9041C250.711 12.6274 250.337 13.1798 249.848 13.5614C249.358 13.94 248.766 14.1293 248.07 14.1293ZM248.07 13.1136C248.76 13.1136 249.295 12.7812 249.677 12.1165C250.058 11.4517 250.249 10.5038 250.249 9.27273C250.249 8.45407 250.162 7.75698 249.986 7.18146C249.814 6.60594 249.565 6.16738 249.238 5.86577C248.915 5.56416 248.526 5.41335 248.07 5.41335C247.387 5.41335 246.853 5.75035 246.468 6.42436C246.084 7.09529 245.891 8.04474 245.891 9.27273C245.891 10.0914 245.978 10.7869 246.15 11.3594C246.322 11.9318 246.57 12.3673 246.893 12.6658C247.219 12.9644 247.612 13.1136 248.07 13.1136ZM256.934 14V4.54545H260.129C260.87 4.54545 261.477 4.67933 261.947 4.94709C262.421 5.21177 262.772 5.57031 263 6.02273C263.228 6.47514 263.342 6.97988 263.342 7.53693C263.342 8.09399 263.228 8.60026 263 9.05575C262.775 9.51125 262.428 9.87441 261.957 10.1452C261.486 10.413 260.883 10.5469 260.147 10.5469H257.857V9.53125H260.11C260.618 9.53125 261.026 9.44354 261.333 9.26811C261.641 9.09268 261.864 8.85571 262.003 8.55717C262.144 8.25556 262.215 7.91548 262.215 7.53693C262.215 7.15838 262.144 6.81984 262.003 6.52131C261.864 6.22277 261.64 5.98887 261.329 5.8196C261.018 5.64725 260.606 5.56108 260.092 5.56108H258.079V14H256.934ZM265.186 4.54545H266.552L269.765 12.3935H269.876L273.089 4.54545H274.456V14H273.385V6.81676H273.292L270.338 14H269.304L266.349 6.81676H266.257V14H265.186V4.54545ZM116.894 20.1023L113.847 31.4219H112.85L115.897 20.1023H116.894ZM125.147 20.5455V30H124.002V21.7457H123.947L121.638 23.2784V22.1151L124.002 20.5455H125.147ZM127.866 30V29.169L130.987 25.7528C131.353 25.3527 131.654 25.005 131.891 24.7095C132.128 24.411 132.304 24.1309 132.418 23.8693C132.535 23.6046 132.593 23.3277 132.593 23.0384C132.593 22.706 132.513 22.4182 132.353 22.1751C132.196 21.9319 131.981 21.7442 131.707 21.6119C131.433 21.4795 131.125 21.4134 130.784 21.4134C130.42 21.4134 130.103 21.4888 129.833 21.6396C129.565 21.7873 129.357 21.995 129.209 22.2628C129.065 22.5305 128.992 22.8445 128.992 23.2045H127.903C127.903 22.6506 128.031 22.1643 128.286 21.7457C128.541 21.3272 128.889 21.0009 129.329 20.767C129.773 20.5331 130.27 20.4162 130.82 20.4162C131.374 20.4162 131.865 20.5331 132.293 20.767C132.721 21.0009 133.056 21.3164 133.299 21.7134C133.543 22.1104 133.664 22.5521 133.664 23.0384C133.664 23.3861 133.601 23.7262 133.475 24.0586C133.352 24.3879 133.136 24.7557 132.829 25.1619C132.524 25.5651 132.101 26.0575 131.559 26.6392L129.436 28.9105V28.9844H133.83V30H127.866ZM139.559 20.5455H140.926L144.139 28.3935H144.25L147.463 20.5455H148.829V30H147.758V22.8168H147.666L144.711 30H143.677L140.723 22.8168H140.63V30H139.559V20.5455ZM151.513 30H150.312L153.784 20.5455H154.966L158.437 30H157.237L154.412 22.0412H154.338L151.513 30ZM151.956 26.3068H156.794V27.3224H151.956V26.3068ZM158.133 20.5455H159.444L162.066 24.9588H162.177L164.799 20.5455H166.11L162.694 26.1037V30H161.549V26.1037L158.133 20.5455Z" fill="white"/>
</svg>
