<svg width="268" height="56" viewBox="0 0 268 56" fill="none" xmlns="http://www.w3.org/2000/svg">
<path d="M134 38L121.01 15.5L146.99 15.5L134 38Z" fill="#386C95"/>
<circle cx="134" cy="50" r="6" fill="#6BC3F7"/>
<rect width="268" height="30" rx="9" fill="#386C95"/>
<path d="M20.5209 12.9091C20.4655 12.4413 20.2408 12.0781 19.8469 11.8196C19.453 11.5611 18.9698 11.4318 18.3973 11.4318C17.9788 11.4318 17.6125 11.4995 17.2986 11.6349C16.9878 11.7704 16.7446 11.9566 16.5692 12.1935C16.3969 12.4305 16.3107 12.6998 16.3107 13.0014C16.3107 13.2538 16.3707 13.4708 16.4907 13.6523C16.6138 13.8308 16.7708 13.9801 16.9616 14.1001C17.1524 14.2171 17.3525 14.314 17.5617 14.391C17.771 14.4648 17.9634 14.5249 18.1388 14.571L19.099 14.8295C19.3452 14.8942 19.6192 14.9834 19.9208 15.0973C20.2255 15.2112 20.5163 15.3666 20.7933 15.5636C21.0733 15.7575 21.3042 16.0067 21.4858 16.3114C21.6673 16.6161 21.7581 16.9901 21.7581 17.4332C21.7581 17.9441 21.6242 18.4058 21.3565 18.8182C21.0918 19.2306 20.704 19.5584 20.1931 19.8015C19.6853 20.0446 19.0683 20.1662 18.3419 20.1662C17.6648 20.1662 17.0786 20.0569 16.5831 19.8384C16.0906 19.6199 15.7028 19.3152 15.4197 18.9244C15.1396 18.5335 14.9811 18.0795 14.9442 17.5625H16.126C16.1568 17.9195 16.2768 18.215 16.4861 18.4489C16.6985 18.6797 16.9662 18.852 17.2894 18.9659C17.6156 19.0767 17.9665 19.1321 18.3419 19.1321C18.779 19.1321 19.1714 19.0613 19.5191 18.9197C19.8669 18.7751 20.1424 18.575 20.3455 18.3196C20.5486 18.0611 20.6502 17.7595 20.6502 17.4148C20.6502 17.1009 20.5625 16.8454 20.387 16.6484C20.2116 16.4515 19.9808 16.2914 19.6946 16.1683C19.4083 16.0452 19.099 15.9375 18.7666 15.8452L17.6033 15.5128C16.8647 15.3004 16.2799 14.9973 15.849 14.6033C15.4182 14.2094 15.2027 13.6939 15.2027 13.0568C15.2027 12.5275 15.3458 12.0658 15.6321 11.6719C15.9214 11.2749 16.3091 10.9671 16.7954 10.7486C17.2848 10.527 17.831 10.4162 18.4343 10.4162C19.0436 10.4162 19.5853 10.5254 20.0593 10.744C20.5332 10.9594 20.9087 11.2549 21.1857 11.6303C21.4657 12.0058 21.6135 12.4321 21.6289 12.9091H20.5209ZM26.5766 12.9091V13.8324H22.9019V12.9091H26.5766ZM23.9729 11.2102H25.0624V17.9688C25.0624 18.2765 25.107 18.5073 25.1962 18.6612C25.2886 18.812 25.4055 18.9136 25.5471 18.9659C25.6917 19.0152 25.8441 19.0398 26.0041 19.0398C26.1242 19.0398 26.2226 19.0336 26.2996 19.0213C26.3765 19.0059 26.4381 18.9936 26.4842 18.9844L26.7058 19.9631C26.632 19.9908 26.5289 20.0185 26.3965 20.0462C26.2642 20.0769 26.0965 20.0923 25.8933 20.0923C25.5856 20.0923 25.284 20.0262 24.9885 19.8938C24.6961 19.7615 24.453 19.5599 24.2591 19.2891C24.0683 19.0182 23.9729 18.6766 23.9729 18.2642V11.2102ZM30.3021 20.1662C29.8527 20.1662 29.4449 20.0816 29.0787 19.9123C28.7125 19.7399 28.4216 19.4922 28.2062 19.169C27.9908 18.8428 27.883 18.4489 27.883 17.9872C27.883 17.581 27.9631 17.2517 28.1231 16.9993C28.2831 16.7438 28.497 16.5438 28.7648 16.3991C29.0325 16.2545 29.328 16.1468 29.6511 16.076C29.9774 16.0021 30.3051 15.9437 30.6345 15.9006C31.0653 15.8452 31.4146 15.8036 31.6824 15.7759C31.9532 15.7451 32.1502 15.6944 32.2733 15.6236C32.3995 15.5528 32.4626 15.4297 32.4626 15.2543V15.2173C32.4626 14.7618 32.3379 14.4079 32.0886 14.1555C31.8424 13.9032 31.4685 13.777 30.9668 13.777C30.4467 13.777 30.0389 13.8909 29.7435 14.1186C29.448 14.3464 29.2403 14.5895 29.1203 14.848L28.0862 14.4787C28.2708 14.0478 28.517 13.7124 28.8248 13.4723C29.1356 13.2292 29.4742 13.0599 29.8404 12.9645C30.2097 12.866 30.5729 12.8168 30.9299 12.8168C31.1577 12.8168 31.4193 12.8445 31.7147 12.8999C32.0132 12.9522 32.301 13.0614 32.578 13.2276C32.8581 13.3938 33.0904 13.6446 33.2751 13.9801C33.4597 14.3156 33.5521 14.7649 33.5521 15.3281V20H32.4626V19.0398H32.4072C32.3333 19.1937 32.2102 19.3583 32.0379 19.5337C31.8655 19.7092 31.6362 19.8584 31.35 19.9815C31.0638 20.1046 30.7145 20.1662 30.3021 20.1662ZM30.4683 19.1875C30.8991 19.1875 31.2623 19.1029 31.5578 18.9336C31.8563 18.7643 32.081 18.5458 32.2318 18.2781C32.3856 18.0103 32.4626 17.7287 32.4626 17.4332V16.4361C32.4164 16.4915 32.3149 16.5423 32.1579 16.5884C32.004 16.6315 31.8255 16.67 31.6224 16.7038C31.4223 16.7346 31.2269 16.7623 31.0361 16.7869C30.8484 16.8085 30.696 16.8269 30.5791 16.8423C30.2959 16.8793 30.0312 16.9393 29.785 17.0224C29.5419 17.1024 29.3449 17.224 29.1941 17.3871C29.0464 17.5471 28.9725 17.7656 28.9725 18.0426C28.9725 18.4212 29.1126 18.7074 29.3926 18.9013C29.6758 19.0921 30.0343 19.1875 30.4683 19.1875ZM38.6244 12.9091V13.8324H34.9497V12.9091H38.6244ZM36.0207 11.2102H37.1102V17.9688C37.1102 18.2765 37.1548 18.5073 37.2441 18.6612C37.3364 18.812 37.4534 18.9136 37.5949 18.9659C37.7396 19.0152 37.8919 19.0398 38.052 19.0398C38.172 19.0398 38.2705 19.0336 38.3474 19.0213C38.4244 19.0059 38.4859 18.9936 38.5321 18.9844L38.7537 19.9631C38.6798 19.9908 38.5767 20.0185 38.4444 20.0462C38.312 20.0769 38.1443 20.0923 37.9412 20.0923C37.6334 20.0923 37.3318 20.0262 37.0364 19.8938C36.744 19.7615 36.5008 19.5599 36.307 19.2891C36.1161 19.0182 36.0207 18.6766 36.0207 18.2642V11.2102ZM40.2633 20V12.9091H41.3528V20H40.2633ZM40.8172 11.7273C40.6049 11.7273 40.4218 11.6549 40.2679 11.5103C40.1171 11.3656 40.0417 11.1918 40.0417 10.9886C40.0417 10.7855 40.1171 10.6116 40.2679 10.467C40.4218 10.3223 40.6049 10.25 40.8172 10.25C41.0296 10.25 41.2112 10.3223 41.362 10.467C41.5159 10.6116 41.5928 10.7855 41.5928 10.9886C41.5928 11.1918 41.5159 11.3656 41.362 11.5103C41.2112 11.6549 41.0296 11.7273 40.8172 11.7273ZM46.2289 20.1477C45.5888 20.1477 45.0271 19.9954 44.5439 19.6907C44.0638 19.386 43.6883 18.9598 43.4175 18.4119C43.1497 17.8641 43.0158 17.224 43.0158 16.4915C43.0158 15.7528 43.1497 15.1081 43.4175 14.5572C43.6883 14.0063 44.0638 13.5785 44.5439 13.2738C45.0271 12.9691 45.5888 12.8168 46.2289 12.8168C46.8691 12.8168 47.4292 12.9691 47.9093 13.2738C48.3925 13.5785 48.768 14.0063 49.0357 14.5572C49.3066 15.1081 49.442 15.7528 49.442 16.4915C49.442 17.224 49.3066 17.8641 49.0357 18.4119C48.768 18.9598 48.3925 19.386 47.9093 19.6907C47.4292 19.9954 46.8691 20.1477 46.2289 20.1477ZM46.2289 19.169C46.7152 19.169 47.1153 19.0444 47.4292 18.7951C47.7431 18.5458 47.9755 18.218 48.1263 17.8118C48.2771 17.4055 48.3525 16.9654 48.3525 16.4915C48.3525 16.0175 48.2771 15.5759 48.1263 15.1665C47.9755 14.7572 47.7431 14.4264 47.4292 14.174C47.1153 13.9216 46.7152 13.7955 46.2289 13.7955C45.7426 13.7955 45.3426 13.9216 45.0286 14.174C44.7147 14.4264 44.4823 14.7572 44.3315 15.1665C44.1807 15.5759 44.1053 16.0175 44.1053 16.4915C44.1053 16.9654 44.1807 17.4055 44.3315 17.8118C44.4823 18.218 44.7147 18.5458 45.0286 18.7951C45.3426 19.0444 45.7426 19.169 46.2289 19.169ZM52.1946 15.7344V20H51.1051V12.9091H52.1576V14.017H52.25C52.4161 13.657 52.6685 13.3677 53.0071 13.1491C53.3456 12.9276 53.7826 12.8168 54.3181 12.8168C54.7983 12.8168 55.2184 12.9152 55.5784 13.1122C55.9385 13.3061 56.2186 13.6016 56.4186 13.9986C56.6187 14.3925 56.7187 14.8911 56.7187 15.4943V20H55.6292V15.5682C55.6292 15.0111 55.4846 14.5772 55.1953 14.2663C54.906 13.9524 54.509 13.7955 54.0042 13.7955C53.6564 13.7955 53.3456 13.8709 53.0717 14.0217C52.8009 14.1725 52.587 14.3925 52.43 14.6818C52.273 14.9711 52.1946 15.322 52.1946 15.7344ZM65.6712 10.5455V20H64.5263V11.7457H64.4709L62.1627 13.2784V12.1151L64.5263 10.5455H65.6712ZM71.3449 20.1293C70.8032 20.1293 70.3154 20.0215 69.8814 19.8061C69.4475 19.5907 69.0997 19.2952 68.8381 18.9197C68.5765 18.5443 68.4334 18.1165 68.4088 17.6364H69.5167C69.5598 18.0642 69.7537 18.4181 70.0984 18.6982C70.4462 18.9751 70.8617 19.1136 71.3449 19.1136C71.7326 19.1136 72.0773 19.0228 72.379 18.8413C72.6836 18.6597 72.9222 18.4104 73.0945 18.0934C73.2699 17.7733 73.3576 17.4117 73.3576 17.0085C73.3576 16.5961 73.2669 16.2283 73.0853 15.9052C72.9068 15.579 72.6606 15.322 72.3466 15.1342C72.0327 14.9465 71.6742 14.8511 71.271 14.848C70.9817 14.8449 70.6847 14.8896 70.38 14.9819C70.0753 15.0711 69.8245 15.1866 69.6275 15.3281L68.5565 15.1989L69.129 10.5455H74.0409V11.5611H70.0892L69.7568 14.3494H69.8122C70.0061 14.1955 70.2492 14.0678 70.5416 13.9663C70.834 13.8647 71.1387 13.8139 71.4557 13.8139C72.0343 13.8139 72.5498 13.9524 73.0022 14.2294C73.4577 14.5033 73.8147 14.8788 74.0732 15.3558C74.3348 15.8329 74.4656 16.3776 74.4656 16.9901C74.4656 17.5933 74.3302 18.1319 74.0593 18.6058C73.7916 19.0767 73.4223 19.4491 72.9514 19.723C72.4805 19.9938 71.945 20.1293 71.3449 20.1293ZM86.2896 17.304C85.9172 17.304 85.5771 17.2132 85.2693 17.0316C84.9615 16.8469 84.7153 16.6007 84.5307 16.293C84.3491 15.9852 84.2583 15.6451 84.2583 15.2727C84.2583 14.8973 84.3491 14.5572 84.5307 14.2525C84.7153 13.9447 84.9615 13.7 85.2693 13.5185C85.5771 13.3338 85.9172 13.2415 86.2896 13.2415C86.665 13.2415 87.0051 13.3338 87.3098 13.5185C87.6176 13.7 87.8622 13.9447 88.0438 14.2525C88.2285 14.5572 88.3208 14.8973 88.3208 15.2727C88.3208 15.6451 88.2285 15.9852 88.0438 16.293C87.8622 16.6007 87.6176 16.8469 87.3098 17.0316C87.0051 17.2132 86.665 17.304 86.2896 17.304ZM95.1347 20H93.9344L97.406 10.5455H98.5878L102.059 20H100.859L98.0339 12.0412H97.96L95.1347 20ZM95.5779 16.3068H100.416V17.3224H95.5779V16.3068ZM103.384 20V12.9091H104.437V13.9801H104.511C104.64 13.6293 104.874 13.3446 105.212 13.1261C105.551 12.9076 105.933 12.7983 106.357 12.7983C106.437 12.7983 106.537 12.7998 106.657 12.8029C106.777 12.806 106.868 12.8106 106.93 12.8168V13.9247C106.893 13.9155 106.808 13.9016 106.676 13.8832C106.547 13.8616 106.41 13.8509 106.265 13.8509C105.92 13.8509 105.613 13.9232 105.342 14.0678C105.074 14.2094 104.862 14.4064 104.705 14.6587C104.551 14.908 104.474 15.1927 104.474 15.5128V20H103.384ZM108.221 20V12.9091H109.274V13.9801H109.348C109.477 13.6293 109.711 13.3446 110.049 13.1261C110.388 12.9076 110.77 12.7983 111.194 12.7983C111.274 12.7983 111.374 12.7998 111.494 12.8029C111.614 12.806 111.705 12.8106 111.767 12.8168V13.9247C111.73 13.9155 111.645 13.9016 111.513 13.8832C111.384 13.8616 111.247 13.8509 111.102 13.8509C110.757 13.8509 110.45 13.9232 110.179 14.0678C109.911 14.2094 109.699 14.4064 109.542 14.6587C109.388 14.908 109.311 15.1927 109.311 15.5128V20H108.221ZM113.058 20V12.9091H114.148V20H113.058ZM113.612 11.7273C113.4 11.7273 113.217 11.6549 113.063 11.5103C112.912 11.3656 112.837 11.1918 112.837 10.9886C112.837 10.7855 112.912 10.6116 113.063 10.467C113.217 10.3223 113.4 10.25 113.612 10.25C113.825 10.25 114.006 10.3223 114.157 10.467C114.311 10.6116 114.388 10.7855 114.388 10.9886C114.388 11.1918 114.311 11.3656 114.157 11.5103C114.006 11.6549 113.825 11.7273 113.612 11.7273ZM121.941 12.9091L119.319 20H118.211L115.589 12.9091H116.771L118.728 18.5597H118.802L120.76 12.9091H121.941ZM125.25 20.1662C124.801 20.1662 124.393 20.0816 124.027 19.9123C123.661 19.7399 123.37 19.4922 123.154 19.169C122.939 18.8428 122.831 18.4489 122.831 17.9872C122.831 17.581 122.911 17.2517 123.071 16.9993C123.231 16.7438 123.445 16.5438 123.713 16.3991C123.981 16.2545 124.276 16.1468 124.599 16.076C124.926 16.0021 125.253 15.9437 125.583 15.9006C126.014 15.8452 126.363 15.8036 126.631 15.7759C126.901 15.7451 127.098 15.6944 127.222 15.6236C127.348 15.5528 127.411 15.4297 127.411 15.2543V15.2173C127.411 14.7618 127.286 14.4079 127.037 14.1555C126.791 13.9032 126.417 13.777 125.915 13.777C125.395 13.777 124.987 13.8909 124.692 14.1186C124.396 14.3464 124.189 14.5895 124.068 14.848L123.034 14.4787C123.219 14.0478 123.465 13.7124 123.773 13.4723C124.084 13.2292 124.422 13.0599 124.789 12.9645C125.158 12.866 125.521 12.8168 125.878 12.8168C126.106 12.8168 126.367 12.8445 126.663 12.8999C126.961 12.9522 127.249 13.0614 127.526 13.2276C127.806 13.3938 128.039 13.6446 128.223 13.9801C128.408 14.3156 128.5 14.7649 128.5 15.3281V20H127.411V19.0398H127.355C127.282 19.1937 127.158 19.3583 126.986 19.5337C126.814 19.7092 126.584 19.8584 126.298 19.9815C126.012 20.1046 125.663 20.1662 125.25 20.1662ZM125.417 19.1875C125.847 19.1875 126.211 19.1029 126.506 18.9336C126.805 18.7643 127.029 18.5458 127.18 18.2781C127.334 18.0103 127.411 17.7287 127.411 17.4332V16.4361C127.365 16.4915 127.263 16.5423 127.106 16.5884C126.952 16.6315 126.774 16.67 126.571 16.7038C126.371 16.7346 126.175 16.7623 125.984 16.7869C125.797 16.8085 125.644 16.8269 125.527 16.8423C125.244 16.8793 124.979 16.9393 124.733 17.0224C124.49 17.1024 124.293 17.224 124.142 17.3871C123.995 17.5471 123.921 17.7656 123.921 18.0426C123.921 18.4212 124.061 18.7074 124.341 18.9013C124.624 19.0921 124.983 19.1875 125.417 19.1875ZM131.578 10.5455V20H130.489V10.5455H131.578ZM140.295 20.1293C139.6 20.1293 139.007 19.94 138.518 19.5614C138.029 19.1798 137.655 18.6274 137.396 17.9041C137.138 17.1778 137.008 16.3007 137.008 15.2727C137.008 14.2509 137.138 13.3784 137.396 12.6552C137.658 11.9289 138.033 11.3749 138.523 10.9933C139.015 10.6085 139.606 10.4162 140.295 10.4162C140.985 10.4162 141.574 10.6085 142.064 10.9933C142.556 11.3749 142.931 11.9289 143.19 12.6552C143.452 13.3784 143.582 14.2509 143.582 15.2727C143.582 16.3007 143.453 17.1778 143.195 17.9041C142.936 18.6274 142.562 19.1798 142.073 19.5614C141.583 19.94 140.991 20.1293 140.295 20.1293ZM140.295 19.1136C140.985 19.1136 141.52 18.7812 141.902 18.1165C142.284 17.4517 142.474 16.5038 142.474 15.2727C142.474 14.4541 142.387 13.757 142.211 13.1815C142.039 12.6059 141.79 12.1674 141.463 11.8658C141.14 11.5642 140.751 11.4134 140.295 11.4134C139.612 11.4134 139.078 11.7504 138.693 12.4244C138.309 13.0953 138.116 14.0447 138.116 15.2727C138.116 16.0914 138.203 16.7869 138.375 17.3594C138.547 17.9318 138.795 18.3673 139.118 18.6658C139.444 18.9644 139.837 19.1136 140.295 19.1136ZM148.531 20.1293C147.922 20.1293 147.379 20.0246 146.902 19.8153C146.428 19.6061 146.051 19.3152 145.771 18.9428C145.494 18.5674 145.343 18.1319 145.318 17.6364H146.481C146.506 17.9411 146.611 18.2042 146.795 18.4258C146.98 18.6443 147.222 18.8136 147.52 18.9336C147.819 19.0536 148.15 19.1136 148.513 19.1136C148.919 19.1136 149.279 19.0429 149.593 18.9013C149.907 18.7597 150.153 18.5627 150.332 18.3104C150.51 18.058 150.599 17.7656 150.599 17.4332C150.599 17.0855 150.513 16.7792 150.341 16.5146C150.169 16.2468 149.916 16.0375 149.584 15.8867C149.251 15.7359 148.845 15.6605 148.365 15.6605H147.608V14.6449H148.365C148.74 14.6449 149.07 14.5772 149.353 14.4418C149.639 14.3063 149.862 14.1155 150.022 13.8693C150.185 13.6231 150.267 13.3338 150.267 13.0014C150.267 12.6813 150.196 12.4028 150.055 12.1658C149.913 11.9289 149.713 11.7442 149.455 11.6119C149.199 11.4795 148.897 11.4134 148.55 11.4134C148.223 11.4134 147.916 11.4734 147.626 11.5934C147.34 11.7103 147.106 11.8812 146.925 12.1058C146.743 12.3274 146.645 12.5952 146.629 12.9091H145.521C145.54 12.4136 145.689 11.9796 145.969 11.6072C146.249 11.2318 146.615 10.9394 147.068 10.7301C147.523 10.5208 148.023 10.4162 148.568 10.4162C149.153 10.4162 149.655 10.5347 150.073 10.7717C150.492 11.0056 150.813 11.3149 151.038 11.6996C151.263 12.0843 151.375 12.4998 151.375 12.946C151.375 13.4785 151.235 13.9324 150.955 14.3079C150.678 14.6834 150.301 14.9434 149.824 15.0881V15.1619C150.421 15.2604 150.887 15.5143 151.223 15.9237C151.558 16.3299 151.726 16.8331 151.726 17.4332C151.726 17.9472 151.586 18.4089 151.306 18.8182C151.029 19.2244 150.65 19.5445 150.17 19.7784C149.69 20.0123 149.144 20.1293 148.531 20.1293ZM154.426 18.7905C154.199 18.7905 154.003 18.7089 153.84 18.5458C153.677 18.3827 153.595 18.1873 153.595 17.9595C153.595 17.7318 153.677 17.5363 153.84 17.3732C154.003 17.2101 154.199 17.1286 154.426 17.1286C154.654 17.1286 154.85 17.2101 155.013 17.3732C155.176 17.5363 155.257 17.7318 155.257 17.9595C155.257 18.1103 155.219 18.2488 155.142 18.375C155.068 18.5012 154.968 18.6027 154.842 18.6797C154.719 18.7536 154.58 18.7905 154.426 18.7905ZM154.426 14.0078C154.199 14.0078 154.003 13.9263 153.84 13.7631C153.677 13.6 153.595 13.4046 153.595 13.1768C153.595 12.9491 153.677 12.7537 153.84 12.5906C154.003 12.4274 154.199 12.3459 154.426 12.3459C154.654 12.3459 154.85 12.4274 155.013 12.5906C155.176 12.7537 155.257 12.9491 155.257 13.1768C155.257 13.3277 155.219 13.4661 155.142 13.5923C155.068 13.7185 154.968 13.8201 154.842 13.897C154.719 13.9709 154.58 14.0078 154.426 14.0078ZM157.194 20V19.169L160.315 15.7528C160.681 15.3527 160.983 15.005 161.22 14.7095C161.457 14.411 161.632 14.1309 161.746 13.8693C161.863 13.6046 161.921 13.3277 161.921 13.0384C161.921 12.706 161.841 12.4182 161.681 12.1751C161.524 11.9319 161.309 11.7442 161.035 11.6119C160.761 11.4795 160.453 11.4134 160.112 11.4134C159.748 11.4134 159.431 11.4888 159.161 11.6396C158.893 11.7873 158.685 11.995 158.537 12.2628C158.393 12.5305 158.32 12.8445 158.32 13.2045H157.231C157.231 12.6506 157.359 12.1643 157.614 11.7457C157.87 11.3272 158.217 11.0009 158.657 10.767C159.101 10.5331 159.598 10.4162 160.149 10.4162C160.703 10.4162 161.193 10.5331 161.621 10.767C162.049 11.0009 162.384 11.3164 162.628 11.7134C162.871 12.1104 162.992 12.5521 162.992 13.0384C162.992 13.3861 162.929 13.7262 162.803 14.0586C162.68 14.3879 162.465 14.7557 162.157 15.1619C161.852 15.5651 161.429 16.0575 160.887 16.6392L158.764 18.9105V18.9844H163.159V20H157.194ZM168.149 20.1293C167.453 20.1293 166.861 19.94 166.372 19.5614C165.882 19.1798 165.508 18.6274 165.25 17.9041C164.991 17.1778 164.862 16.3007 164.862 15.2727C164.862 14.2509 164.991 13.3784 165.25 12.6552C165.511 11.9289 165.887 11.3749 166.376 10.9933C166.869 10.6085 167.46 10.4162 168.149 10.4162C168.838 10.4162 169.428 10.6085 169.917 10.9933C170.409 11.3749 170.785 11.9289 171.043 12.6552C171.305 13.3784 171.436 14.2509 171.436 15.2727C171.436 16.3007 171.307 17.1778 171.048 17.9041C170.79 18.6274 170.416 19.1798 169.926 19.5614C169.437 19.94 168.844 20.1293 168.149 20.1293ZM168.149 19.1136C168.838 19.1136 169.374 18.7812 169.755 18.1165C170.137 17.4517 170.328 16.5038 170.328 15.2727C170.328 14.4541 170.24 13.757 170.065 13.1815C169.892 12.6059 169.643 12.1674 169.317 11.8658C168.994 11.5642 168.604 11.4134 168.149 11.4134C167.466 11.4134 166.932 11.7504 166.547 12.4244C166.162 13.0953 165.97 14.0447 165.97 15.2727C165.97 16.0914 166.056 16.7869 166.228 17.3594C166.401 17.9318 166.649 18.3673 166.972 18.6658C167.298 18.9644 167.69 19.1136 168.149 19.1136ZM177.4 20H176.2L179.672 10.5455H180.853L184.325 20H183.125L180.299 12.0412H180.226L177.4 20ZM177.844 16.3068H182.682V17.3224H177.844V16.3068ZM185.798 10.5455H187.164L190.377 18.3935H190.488L193.701 10.5455H195.068V20H193.997V12.8168H193.904L190.95 20H189.916L186.961 12.8168H186.869V20H185.798V10.5455ZM204.214 10.1023L201.167 21.4219H200.17L203.217 10.1023H204.214ZM212.338 20.1293C211.728 20.1293 211.185 20.0246 210.708 19.8153C210.234 19.6061 209.857 19.3152 209.577 18.9428C209.3 18.5674 209.149 18.1319 209.125 17.6364H210.288C210.313 17.9411 210.417 18.2042 210.602 18.4258C210.787 18.6443 211.028 18.8136 211.327 18.9336C211.625 19.0536 211.956 19.1136 212.319 19.1136C212.726 19.1136 213.086 19.0429 213.4 18.9013C213.714 18.7597 213.96 18.5627 214.138 18.3104C214.317 18.058 214.406 17.7656 214.406 17.4332C214.406 17.0855 214.32 16.7792 214.148 16.5146C213.975 16.2468 213.723 16.0375 213.39 15.8867C213.058 15.7359 212.652 15.6605 212.172 15.6605H211.415V14.6449H212.172C212.547 14.6449 212.876 14.5772 213.16 14.4418C213.446 14.3063 213.669 14.1155 213.829 13.8693C213.992 13.6231 214.074 13.3338 214.074 13.0014C214.074 12.6813 214.003 12.4028 213.861 12.1658C213.72 11.9289 213.52 11.7442 213.261 11.6119C213.006 11.4795 212.704 11.4134 212.356 11.4134C212.03 11.4134 211.722 11.4734 211.433 11.5934C211.147 11.7103 210.913 11.8812 210.731 12.1058C210.55 12.3274 210.451 12.5952 210.436 12.9091H209.328C209.346 12.4136 209.496 11.9796 209.776 11.6072C210.056 11.2318 210.422 10.9394 210.874 10.7301C211.33 10.5208 211.83 10.4162 212.375 10.4162C212.96 10.4162 213.461 10.5347 213.88 10.7717C214.298 11.0056 214.62 11.3149 214.845 11.6996C215.069 12.0843 215.182 12.4998 215.182 12.946C215.182 13.4785 215.042 13.9324 214.761 14.3079C214.485 14.6834 214.107 14.9434 213.63 15.0881V15.1619C214.228 15.2604 214.694 15.5143 215.029 15.9237C215.365 16.3299 215.532 16.8331 215.532 17.4332C215.532 17.9472 215.392 18.4089 215.112 18.8182C214.835 19.2244 214.457 19.5445 213.977 19.7784C213.497 20.0123 212.95 20.1293 212.338 20.1293ZM220.504 20.1293C219.809 20.1293 219.216 19.94 218.727 19.5614C218.238 19.1798 217.864 18.6274 217.605 17.9041C217.347 17.1778 217.217 16.3007 217.217 15.2727C217.217 14.2509 217.347 13.3784 217.605 12.6552C217.867 11.9289 218.242 11.3749 218.732 10.9933C219.224 10.6085 219.815 10.4162 220.504 10.4162C221.194 10.4162 221.783 10.6085 222.273 10.9933C222.765 11.3749 223.14 11.9289 223.399 12.6552C223.661 13.3784 223.791 14.2509 223.791 15.2727C223.791 16.3007 223.662 17.1778 223.404 17.9041C223.145 18.6274 222.771 19.1798 222.282 19.5614C221.792 19.94 221.2 20.1293 220.504 20.1293ZM220.504 19.1136C221.194 19.1136 221.729 18.7812 222.111 18.1165C222.493 17.4517 222.683 16.5038 222.683 15.2727C222.683 14.4541 222.596 13.757 222.42 13.1815C222.248 12.6059 221.999 12.1674 221.672 11.8658C221.349 11.5642 220.96 11.4134 220.504 11.4134C219.821 11.4134 219.287 11.7504 218.902 12.4244C218.518 13.0953 218.325 14.0447 218.325 15.2727C218.325 16.0914 218.412 16.7869 218.584 17.3594C218.756 17.9318 219.004 18.3673 219.327 18.6658C219.653 18.9644 220.046 19.1136 220.504 19.1136ZM232.286 20H229.368V10.5455H232.415C233.332 10.5455 234.117 10.7347 234.769 11.1133C235.422 11.4888 235.922 12.0289 236.27 12.7337C236.617 13.4354 236.791 14.2756 236.791 15.2543C236.791 16.2391 236.616 17.087 236.265 17.7979C235.914 18.5058 235.403 19.0505 234.732 19.4322C234.061 19.8107 233.246 20 232.286 20ZM230.513 18.9844H232.212C232.994 18.9844 233.641 18.8336 234.155 18.532C234.669 18.2304 235.052 17.801 235.305 17.244C235.557 16.6869 235.683 16.0237 235.683 15.2543C235.683 14.491 235.559 13.8339 235.309 13.283C235.06 12.729 234.688 12.3043 234.192 12.0089C233.697 11.7103 233.08 11.5611 232.341 11.5611H230.513V18.9844ZM238.712 20V10.5455H244.418V11.5611H239.857V14.7557H244.122V15.7713H239.857V18.9844H244.492V20H238.712ZM254.089 13.5H252.944C252.877 13.1707 252.758 12.8814 252.589 12.6321C252.423 12.3828 252.22 12.1735 251.98 12.0043C251.743 11.8319 251.479 11.7027 251.19 11.6165C250.901 11.5303 250.599 11.4872 250.285 11.4872C249.713 11.4872 249.194 11.6319 248.73 11.9212C248.268 12.2105 247.9 12.6367 247.626 13.1999C247.355 13.7631 247.22 14.4541 247.22 15.2727C247.22 16.0914 247.355 16.7823 247.626 17.3455C247.9 17.9087 248.268 18.335 248.73 18.6243C249.194 18.9136 249.713 19.0582 250.285 19.0582C250.599 19.0582 250.901 19.0152 251.19 18.929C251.479 18.8428 251.743 18.7151 251.98 18.5458C252.22 18.3735 252.423 18.1626 252.589 17.9134C252.758 17.661 252.877 17.3717 252.944 17.0455H254.089C254.003 17.5286 253.846 17.9611 253.618 18.3427C253.391 18.7243 253.107 19.049 252.769 19.3168C252.43 19.5814 252.05 19.783 251.629 19.9215C251.21 20.06 250.762 20.1293 250.285 20.1293C249.479 20.1293 248.762 19.9323 248.134 19.5384C247.506 19.1444 247.012 18.5843 246.652 17.858C246.292 17.1316 246.112 16.2699 246.112 15.2727C246.112 14.2756 246.292 13.4138 246.652 12.6875C247.012 11.9612 247.506 11.401 248.134 11.0071C248.762 10.6132 249.479 10.4162 250.285 10.4162C250.762 10.4162 251.21 10.4854 251.629 10.6239C252.05 10.7624 252.43 10.9656 252.769 11.2333C253.107 11.498 253.391 11.8211 253.618 12.2028C253.846 12.5813 254.003 13.0137 254.089 13.5Z" fill="white"/>
</svg>
